<svg width="200" height="200" viewBox="0 0 200 200" fill="none" xmlns="http://www.w3.org/2000/svg">
<rect x="1" y="1" width="198" height="198" rx="99" fill="#F1B522" stroke="#786A60" stroke-width="2"/>
<path fill-rule="evenodd" clip-rule="evenodd" d="M108.233 74.1857C108.022 76.6554 108.461 79.0081 108.824 81.3725C108.853 81.5598 108.806 81.7939 108.713 81.9636C107.466 84.3455 107.525 86.6865 109.14 88.8402C110.656 90.8651 112.78 91.5967 115.25 91.0758C117.725 90.5549 119.306 88.9748 119.873 86.5168C120.441 84.0529 119.639 81.9987 117.708 80.3717C117.544 80.2313 117.386 79.9972 117.357 79.7865C117.175 78.4814 117.023 77.1763 116.889 75.8653C116.853 75.5259 116.912 75.1748 116.935 74.7592C118.615 75.005 120.213 75.2099 121.805 75.4791C122.811 75.6488 123.467 76.275 123.625 77.305C123.87 78.9028 124.11 80.5005 124.286 82.104C124.543 84.4274 124.76 86.7567 124.959 89.086C125.275 92.7906 125.521 96.501 125.398 100.223C125.38 100.803 125.298 101.382 125.234 101.955C125.146 102.693 124.783 103.249 124.251 103.77C121.91 106.064 119.616 108.393 117.298 110.711C112.757 115.252 108.209 119.788 103.668 124.329C99.9867 128.01 96.3114 131.692 92.6419 135.379C91.7114 136.315 90.6462 136.953 89.3119 137.088C87.6908 137.251 86.2686 136.777 85.1215 135.63C77.9055 128.432 70.6953 121.222 63.491 114.006C61.4894 111.998 61.507 108.779 63.5202 106.772C70.6251 99.6613 77.7358 92.5565 84.8406 85.4458C88.4633 81.8231 92.0859 78.1946 95.7203 74.5778C95.9134 74.3847 96.2119 74.2325 96.4811 74.1916C97.1951 74.0921 97.9208 74.0218 98.6406 74.0277C101.66 74.0511 104.68 74.1038 107.7 74.1506C107.858 74.1506 108.028 74.174 108.233 74.1857ZM79.4739 108.036C80.2113 110.295 81.5281 112.174 83.1434 113.994C82.2246 114.883 81.3116 115.767 80.4396 116.61C81.3643 117.529 82.2538 118.412 83.1844 119.337C84.1032 118.412 85.0513 117.459 85.9994 116.51C86.5671 116.826 87.1055 117.166 87.679 117.447C90.8628 119.021 94.1577 118.465 96.4694 115.978C97.8447 114.497 98.4475 112.777 98.1666 110.758C97.9676 109.341 97.4818 108.019 96.8849 106.731C96.247 105.356 95.574 103.998 95.2989 102.488C95.1584 101.739 95.2462 101.031 95.9017 100.527C96.5689 100.012 97.3004 99.9773 98.0671 100.305C98.9801 100.697 99.6531 101.382 100.297 102.108C101.432 103.378 102.252 104.841 102.808 106.491C104.154 105.724 105.47 104.969 106.793 104.22C106.102 102.26 104.991 100.621 103.557 99.0585C104.394 98.2275 105.195 97.4315 105.915 96.7117C105.061 95.8338 104.183 94.9384 103.276 94.0137C102.439 94.8623 101.579 95.7226 100.753 96.5595C100.086 96.2142 99.4658 95.8338 98.8045 95.5588C96.4109 94.5697 94.0699 94.5697 91.8986 96.1264C90.1722 97.3613 89.1948 99.0234 89.2065 101.206C89.2124 102.582 89.5694 103.869 90.0727 105.122C90.5877 106.38 91.2081 107.591 91.6821 108.861C91.9338 109.534 92.0625 110.289 92.0859 111.015C92.1269 112.156 91.1612 113.046 90.0317 113.052C89.2241 113.058 88.5394 112.718 87.919 112.256C86.3915 111.12 85.3322 109.605 84.5304 107.902C84.1851 107.164 83.9159 106.392 83.5999 105.607C82.2246 106.415 80.861 107.217 79.4739 108.036Z" fill="black"/>
<path fill-rule="evenodd" clip-rule="evenodd" d="M136.995 78.1947C136.854 83.7252 135.233 90.1453 132.038 96.1616C131.347 97.4667 130.042 97.9232 128.866 97.2911C127.783 96.7059 127.35 95.3657 127.947 94.2889C130.147 90.3326 131.511 86.0955 132.172 81.6301C132.506 79.3827 132.728 77.1178 132.459 74.8471C132.108 71.9092 130.955 69.3868 128.362 67.7422C124.769 65.4657 119.706 66.2733 116.962 69.5331C115.335 71.4702 114.621 73.6942 114.814 76.2283C115.03 79.0433 115.51 81.8173 116.113 84.5738C116.406 85.914 115.797 87.0611 114.603 87.4005C113.339 87.7634 112.016 87.0026 111.788 85.7033C111.25 82.6367 110.641 79.57 110.296 76.4799C109.927 73.1967 110.899 70.1944 112.853 67.5316C114.656 65.0735 117.038 63.3939 119.964 62.5453C125.998 60.7896 132.061 63.3646 135.139 68.9596C136.433 71.2947 137.059 73.9517 136.995 78.1947Z" fill="black"/>
</svg>
