<svg width="200" height="200" viewBox="0 0 200 200" fill="none" xmlns="http://www.w3.org/2000/svg">
<rect x="1" y="1" width="198" height="198" rx="99" fill="#F1B522" stroke="#786A60" stroke-width="2"/>
<path fill-rule="evenodd" clip-rule="evenodd" d="M92.6228 69.1373C94.1329 68.5461 95.6359 67.9335 97.2956 67.8836C99.2259 67.8195 100.971 68.4891 102.652 69.3154C107.011 71.4594 110.594 74.4796 113.08 78.7107C114.134 80.5128 114.12 82.4574 113.771 84.4305C113.372 86.6885 112.432 88.7969 111.919 91.0193C111.399 93.2488 111.143 95.5139 111.364 97.8147C111.734 101.682 112.282 105.536 112.738 109.39C112.76 109.568 112.888 109.774 112.653 109.995C111.998 108.919 111.378 107.815 110.438 106.968C109.654 106.263 108.806 105.721 107.688 105.735C106.855 105.743 106.221 106.063 105.715 106.697C104.582 108.115 104.383 109.803 104.419 111.505C104.468 113.877 104.832 116.206 105.622 118.457C106.007 119.561 105.886 120.701 105.943 121.826C106.114 125.253 106.726 128.558 108.457 131.578C108.671 131.955 108.643 132.155 108.279 132.411C103.763 135.588 97.7728 133.387 95.7855 129.968C94.7882 128.251 94.7598 126.407 94.8595 124.526C94.8951 123.864 95.0233 123.208 95.0803 122.546C95.1017 122.282 95.2014 122.061 95.3866 121.898C98.4281 119.155 98.7273 115.48 98.8341 111.747C98.8698 110.415 98.8413 109.083 98.6489 107.766C98.4067 106.141 98.6561 104.589 99.2473 103.071C100.636 99.5028 101.128 95.7988 100.843 91.9951C100.729 90.4993 100.515 89.0035 99.5892 87.7356C98.4281 86.1329 96.5263 85.969 95.1373 87.3509C93.7554 88.7328 93.0645 90.4993 92.4376 92.2943C92.0886 93.2915 91.8108 94.3101 91.4547 95.4498C90.7851 94.4027 90.1583 93.4482 89.5599 92.4724C88.3276 90.4922 87.1025 88.512 86.1266 86.3822C85.1294 84.2096 85.0368 81.916 85.1935 79.5939C85.2505 78.7676 85.4214 77.9414 85.5425 77.1222C85.977 76.2247 86.2192 75.2417 86.7321 74.3656C88.0997 71.9794 90.1725 70.3482 92.6228 69.1373Z" fill="black"/>
<path fill-rule="evenodd" clip-rule="evenodd" d="M82.9834 79.2884C82.2212 81.3683 82.4919 83.4696 82.9763 85.5424C83.8025 89.0755 85.5548 92.2238 87.2002 95.4078C87.649 96.2769 88.1476 97.1245 88.6462 97.9721C88.867 98.3497 88.867 98.6845 88.7388 99.0905C88.3542 100.38 87.7986 101.626 87.6846 102.994C87.6846 103.015 87.6704 103.044 87.6704 103.065C87.6561 103.421 87.535 103.899 87.9197 104.041C88.2331 104.162 88.4254 103.72 88.6035 103.471C90.0993 101.341 91.4954 99.1403 92.9343 96.9749C93.5326 96.0774 93.6038 94.838 93.96 93.7696C94.4942 92.1597 95.0213 90.5499 96.0328 89.1538C96.3462 88.7193 96.7309 88.3204 97.2865 88.3632C97.9133 88.413 98.1697 88.9615 98.362 89.4601C98.9461 90.9773 98.9604 92.58 98.9817 94.1827C99.0174 97.3311 98.2267 100.308 97.1796 103.236C96.6311 104.76 96.5528 106.32 96.7166 107.959C97.0656 111.321 97.1369 114.697 95.926 117.945C95.6767 118.622 95.3347 119.249 94.772 119.719C93.2619 120.965 92.8773 122.767 92.3929 124.52C90.7689 130.425 89.5366 136.422 88.3542 142.434C88.1476 143.495 87.941 144.557 87.706 145.611C87.649 145.882 87.6775 146.217 87.3783 146.402C86.317 146.387 85.2628 146.359 84.2014 146.359C79.9347 146.359 75.668 146.366 71.4013 146.387C70.8742 146.387 70.9739 146.195 71.1021 145.86C72.2418 142.983 73.3673 140.098 74.4927 137.213C76.537 131.97 78.5671 126.728 80.6114 121.485C81.1456 120.111 81.687 118.736 82.264 117.382C83.0617 115.509 83.0831 113.643 82.5418 111.691C81.0815 106.406 79.6783 101.106 78.2822 95.8067C77.9973 94.7169 77.8121 93.5915 77.6197 92.4803C77.4773 91.6326 77.8121 90.8277 77.9616 90.0086C78.4674 87.3517 79.0871 84.7162 80.2196 82.2445C80.7467 81.0905 81.4519 80.0577 82.4563 79.267C82.5489 79.1958 82.8409 78.626 82.9834 79.2884Z" fill="black"/>
<path fill-rule="evenodd" clip-rule="evenodd" d="M95.0085 54.9414C95.3148 57.9829 94.6523 60.8393 93.363 63.5816C92.5368 65.341 91.1692 66.2813 89.2174 66.3525C87.8783 65.6972 87.4438 64.5219 87.3013 63.14C87.0592 60.8464 86.7386 58.5528 87.052 56.2378C87.2016 55.0981 87.7145 54.2576 88.7616 53.7518C90.0366 53.1321 91.3615 52.8543 92.7647 53.0751C93.8617 53.2461 94.6238 53.8872 95.0085 54.9414Z" fill="black"/>
<path fill-rule="evenodd" clip-rule="evenodd" d="M103.838 56.6078C104.985 58.2033 104.729 59.7419 103.66 61.252C102.556 62.8191 101.288 64.1938 99.5073 65.0201C98.0115 65.7182 96.9858 65.2481 96.6724 63.6311C96.3732 62.0712 96.765 60.5468 97.1354 59.0439C97.3063 58.3529 97.5627 57.6905 97.7836 57.0067C98.0044 56.6576 98.1896 56.2801 98.4531 55.9738C99.6997 54.5492 101.217 54.4068 102.755 55.5749C103.126 55.8527 103.432 56.2089 103.774 56.5294C103.774 56.5793 103.795 56.6007 103.838 56.6078Z" fill="black"/>
<path fill-rule="evenodd" clip-rule="evenodd" d="M110.1 61.309C110.136 62.8191 109.744 64.201 109.018 65.5259C108.191 67.0431 106.838 67.7625 105.25 68.0759C103.761 68.368 102.714 67.0502 103.113 65.3977C103.547 63.6026 104.758 62.3062 106.019 61.0526C106.646 60.4258 107.351 60.0767 108.234 60.0625C109.046 60.1978 109.652 60.6395 110.1 61.309Z" fill="black"/>
<path fill-rule="evenodd" clip-rule="evenodd" d="M114.374 146.387C112.821 146.387 111.268 146.373 109.715 146.394C109.238 146.401 109.117 146.266 109.224 145.803C109.893 142.904 110.392 139.976 110.876 137.042C111.118 135.588 110.755 134.207 110.677 132.789C110.598 131.436 110.043 130.218 109.487 129.014C108.412 126.692 107.97 124.241 107.977 121.706C107.984 119.319 107.386 117.04 106.902 114.732C106.588 113.236 106.503 111.705 106.567 110.173C106.581 109.888 106.681 109.596 106.788 109.326C107.215 108.257 107.963 108.051 108.868 108.763C110.257 109.853 110.983 111.384 111.645 112.959C112.45 114.86 113.255 116.755 114.053 118.657C114.131 118.835 114.153 119.063 114.395 119.091C114.63 119.12 114.773 118.949 114.829 118.764C115.471 116.606 116.532 114.497 116.268 112.196C115.877 108.827 115.129 105.508 114.452 102.181C113.918 99.5601 113.234 96.953 113.22 94.2463C113.213 92.9356 113.668 91.739 114.053 90.5209C114.188 90.0864 114.459 90.2574 114.687 90.3785C115.998 91.0551 116.71 92.2233 117.137 93.5625C117.907 95.9914 119.053 98.2494 120.336 100.429C122.53 104.154 124.766 107.851 127.06 111.52C128.107 113.186 128.249 114.981 128.114 116.841C127.815 120.986 126.689 124.89 124.788 128.594C123.327 131.436 122.394 134.484 121.411 137.519C120.542 140.204 120.036 142.947 119.844 145.746C119.809 146.287 119.573 146.437 119.053 146.423C117.486 146.366 115.934 146.387 114.374 146.387Z" fill="black"/>
<path fill-rule="evenodd" clip-rule="evenodd" d="M113.427 66.7655C113.441 68.703 111.803 70.612 109.887 70.8755C108.669 71.0465 107.928 70.2558 108.22 69.0592C108.555 67.6702 109.267 66.4735 110.229 65.4335C110.798 64.8138 111.468 64.3508 112.365 64.6429C112.978 64.8352 113.42 65.7826 113.427 66.7655Z" fill="black"/>
<path fill-rule="evenodd" clip-rule="evenodd" d="M113.369 74.3802C111.709 74.3517 111.089 73.3687 111.859 71.8942C112.55 70.5764 113.476 69.4795 115.064 69.2302C116.496 69.0094 117.037 69.5009 116.973 70.9397C116.88 72.8701 115.256 74.4158 113.369 74.3802Z" fill="black"/>
</svg>
