<svg width="200" height="200" viewBox="0 0 200 200" fill="none" xmlns="http://www.w3.org/2000/svg">
<rect x="1" y="1" width="198" height="198" rx="99" fill="#F1B522" stroke="#786A60" stroke-width="2"/>
<path fill-rule="evenodd" clip-rule="evenodd" d="M76.5287 91.0293C76.423 88.8754 76.2777 86.867 76.2314 84.8585C76.0002 75.2058 87.4565 67.6475 97.2545 72.5234C99.9634 73.8712 102.078 75.8599 103.584 78.4894C103.842 78.9387 104.284 79.3285 103.65 79.8901C98.8864 84.092 98.6948 89.589 99.4414 95.2775C100.333 102.076 102.963 108.333 105.844 114.457C106.993 116.902 107.416 119.227 106.887 121.85C106.491 123.826 106.306 125.848 106.088 127.856C105.989 128.774 105.738 129.217 104.681 129.078C92.8742 127.572 81.0412 126.178 69.8293 121.844C64.3654 119.73 59.3376 116.862 55.8558 111.96C52.4268 107.13 52.1361 101.977 54.7128 96.6386C57.8048 90.2299 65.4225 86.9132 72.3003 89.5626C73.6547 90.0845 75.0554 90.5205 76.5287 91.0293Z" fill="black"/>
<path fill-rule="evenodd" clip-rule="evenodd" d="M125.879 88.9684C126.995 88.1227 128.02 87.3167 129.07 86.5503C133.087 83.6102 138.069 84.3568 141.696 87.0722C145.442 89.8735 146.915 94.8155 145.435 99.2355C144.2 102.916 141.854 105.836 139.02 108.379C134.052 112.832 128.238 115.964 122.338 118.944C119.853 120.193 117.33 121.369 114.832 122.597C114.178 122.915 113.636 123.073 113.233 122.227C108.992 113.308 104.499 104.481 103.125 94.5248C102.689 91.3601 102.874 88.2152 103.858 85.1364C105.292 80.6701 109.52 77.4922 114.191 77.4526C119.113 77.4129 123.025 80.1614 124.591 84.7862C125.053 86.1473 125.443 87.5413 125.879 88.9684Z" fill="black"/>
</svg>
