<svg width="200" height="200" viewBox="0 0 200 200" fill="none" xmlns="http://www.w3.org/2000/svg">
<rect x="1" y="1" width="198" height="198" rx="99" fill="#F1B522" stroke="#786A60" stroke-width="2"/>
<path fill-rule="evenodd" clip-rule="evenodd" d="M76.0671 121.921C76.0671 115.144 76.0134 108.366 76.0851 101.589C76.1209 98.464 76.8192 95.4468 78.3591 92.6803C79.2276 91.1046 80.3646 89.8064 82.021 88.9648C82.4418 88.7499 82.8626 88.2306 82.979 87.774C83.2744 86.5832 83.4087 85.3566 83.5699 84.139C83.5878 83.9868 83.3639 83.7451 83.2028 83.6555C82.2627 83.1184 81.824 82.2499 82.0747 81.3009C82.3164 80.3877 83.0954 79.8236 84.1339 79.8236C90.1325 79.8236 96.14 79.8236 102.139 79.8236C103.276 79.8236 104.037 80.3519 104.287 81.3009C104.538 82.2499 104.117 83.0825 103.159 83.6555C102.971 83.7719 102.774 84.0943 102.783 84.3091C102.819 85.1239 102.909 85.9476 103.043 86.7533C103.24 87.8904 103.759 88.732 104.887 89.3229C106.767 90.3077 107.815 92.0894 108.639 93.9875C109.758 96.5749 110.277 99.2967 110.277 102.108C110.295 112.923 110.286 123.748 110.286 134.563C110.286 137.222 110.322 139.881 110.268 142.54C110.25 143.373 110.089 144.223 109.865 145.038C109.444 146.542 108.621 147.124 107.045 147.124C102.882 147.133 98.7185 147.133 94.5553 147.133C89.5685 147.133 84.5816 147.133 79.5947 147.133C77.5802 147.133 76.6491 146.498 76.3537 144.483C76.0851 142.63 76.0403 140.732 76.0224 138.852C75.9866 133.211 76.0045 127.571 76.0045 121.93C76.0313 121.921 76.0492 121.921 76.0671 121.921ZM93.1945 105.277C92.7737 105.841 92.4156 106.298 92.0843 106.764C89.9714 109.709 87.8942 112.699 86.5423 116.093C86.211 116.934 85.9246 117.874 85.9604 118.761C86.1215 123.139 89.7744 126.237 94.1077 125.744C98.5842 125.234 101.619 120.399 99.9362 116.317C98.2798 112.306 95.7909 108.841 93.1945 105.277Z" fill="black"/>
<path fill-rule="evenodd" clip-rule="evenodd" d="M108.817 71.8647C110.33 74.6671 111.816 77.4067 113.293 80.1464C115.639 84.4797 118.002 88.804 120.33 93.1553C121.387 95.1249 121.432 97.2826 121.244 99.4493C121.181 100.157 120.921 100.291 120.259 99.9417C118.307 98.9121 116.588 97.605 115.505 95.6174C111.843 88.8667 108.19 82.1071 104.528 75.3475C104.376 75.0699 104.224 74.8013 104.036 74.4611C102.934 75.052 101.878 75.6161 100.83 76.198C98.2071 77.6484 96.1569 77.0575 94.7064 74.4432C94.2946 73.7001 93.8917 72.957 93.4978 72.2139C92.3965 70.1457 93.068 67.8806 95.1272 66.7435C96.1121 66.1974 97.1059 65.6513 98.1265 65.0962C96.9 62.84 95.7002 60.6286 94.5095 58.4171C93.7306 56.9578 93.8917 55.3462 94.9034 54.2271C96.6135 52.329 99.4964 52.6782 100.768 54.9612C101.905 57.0115 103.006 59.0797 104.116 61.1389C104.206 61.309 104.304 61.4702 104.421 61.685C105.414 61.1478 106.39 60.6285 107.366 60.1003C109.497 58.9543 111.78 59.6437 112.926 61.7746C113.356 62.5804 113.803 63.3861 114.242 64.1919C115.433 66.3854 114.744 68.6685 112.532 69.8592C111.323 70.5128 110.115 71.1664 108.817 71.8647Z" fill="black"/>
<path fill-rule="evenodd" clip-rule="evenodd" d="M120.937 102.197C121.654 103.424 122.424 104.606 123.059 105.868C123.623 106.996 123.247 108.178 122.298 108.885C121.403 109.557 120.167 109.557 119.263 108.885C118.314 108.187 117.938 106.978 118.493 105.859C119.12 104.597 119.899 103.406 120.615 102.188C120.714 102.206 120.821 102.197 120.937 102.197ZM119.003 107.703C119.111 107.703 119.209 107.695 119.317 107.695C119.29 107.211 119.263 106.728 119.227 106.244C119.156 106.244 119.075 106.244 118.995 106.244C119.003 106.737 119.003 107.22 119.003 107.703Z" fill="black"/>
<path fill-rule="evenodd" clip-rule="evenodd" d="M93.1903 105.278C95.7867 108.85 98.2756 112.315 99.932 116.317C101.615 120.4 98.58 125.234 94.1035 125.745C89.7702 126.237 86.1173 123.139 85.9562 118.761C85.9203 117.875 86.2068 116.935 86.5381 116.093C87.89 112.7 89.9672 109.719 92.0801 106.764C92.4203 106.29 92.7695 105.842 93.1903 105.278ZM88.8301 118.027C88.857 118.027 88.8838 118.018 88.9017 118.009C88.9286 117.723 89.0092 117.427 88.9823 117.15C88.9554 116.953 88.7853 116.604 88.6779 116.604C88.463 116.604 88.1228 116.756 88.0691 116.917C87.6035 118.197 87.5229 119.513 88.0064 120.811C88.078 121.008 88.3825 121.268 88.5615 121.259C88.7674 121.241 89.0181 120.991 89.1255 120.785C89.224 120.597 89.1614 120.319 89.1345 120.095C89.045 119.397 88.9375 118.716 88.8301 118.027Z" fill="#F1B522"/>
<path fill-rule="evenodd" clip-rule="evenodd" d="M119.004 107.704C119.004 107.221 119.004 106.737 119.004 106.245C119.084 106.245 119.156 106.245 119.237 106.245C119.264 106.728 119.29 107.212 119.326 107.695C119.219 107.695 119.111 107.704 119.004 107.704Z" fill="white"/>
<path fill-rule="evenodd" clip-rule="evenodd" d="M88.8379 118.027C88.9453 118.716 89.0528 119.406 89.1423 120.095C89.1781 120.328 89.2318 120.605 89.1333 120.784C89.0259 120.999 88.7752 121.25 88.5693 121.259C88.3902 121.268 88.0858 121.017 88.0142 120.811C87.5307 119.513 87.6113 118.197 88.0769 116.917C88.1395 116.747 88.4797 116.603 88.6857 116.603C88.7931 116.603 88.9632 116.943 88.9901 117.149C89.0259 117.427 88.9453 117.722 88.9095 118.009C88.8916 118.018 88.8647 118.018 88.8379 118.027Z" fill="black"/>
</svg>
